<svg xmlns="http://www.w3.org/2000/svg" version="1.1" xmlns:xlink="http://www.w3.org/1999/xlink" xmlns:svgjs="http://svgjs.dev/svgjs" width="1000" height="894" viewBox="0 0 1000 894"><g transform="matrix(1,0,0,1,-0.7200016020975681,0.3626116915381772)"><svg viewBox="0 0 276 247" data-background-color="#ffffff" preserveAspectRatio="xMidYMid meet" height="894" width="1000" xmlns="http://www.w3.org/2000/svg" xmlns:xlink="http://www.w3.org/1999/xlink"><g id="tight-bounds" transform="matrix(1,0,0,1,0.19895955782089914,-0.09997365579206985)"><svg viewBox="0 0 275.6021833455434 247.2" height="247.2" width="275.6021833455434"><g><svg viewBox="0 0 275.6021833455434 247.2" height="247.2" width="275.6021833455434"><g><svg viewBox="0 0 275.6021833455434 247.2" height="247.2" width="275.6021833455434"><g><svg viewBox="0 0 275.6021833455434 247.2" height="247.2" width="275.6021833455434"><g><svg viewBox="0 0 275.6021833455434 247.2" height="247.2" width="275.6021833455434"><path d="M274.957 53.02C273.661 27.36 269.969 20.227 269.969 20.227 258.632-6.202 244.483-0.506 231.772 3.292 209.332 3.446 186.981 9.091 164.592 12.119 117.598 12.581 70.203 4.986 23.442 23.717 19.05 29.464-4.557 24.846 0.781 56.304 2.181 69.39 7.286 83.913 7.13 95.922 7.83 98.026 8.801 93.202 9.216 96.23 10.667 104.39 13.038 100.541 14.982 105.365 12.274 118.246 14.217 128.971 16.07 140.21 12.805 143.135 8.62 141.749 6.741 151.449 6.547 158.479 5.497 157.145 4.344 156.837 3.502 156.632 1.805 157.402 2.09 159.608 3.062 167.152-1.11 171.514 1.507 178.904-0.294 186.91 2.751 193.838 2.336 202.511 2.284 204.255 2.569 205.744 3.023 206.154 5.031 208.361 2.103 212.672 2.414 217.342 23.015 249.262 45.365 227.195 66.471 241.872 71.952 231.608 67.832 245.516 70.022 243.36 71.732 240.846 72.976 251.263 74.906 245.362 75.204 243.668 74.751 239.665 75.813 240.435 76.37 240.846 76.863 240.743 76.94 238.382 77.057 234.841 76.033 237.048 75.761 235.201 78.703 225.861 77.977 248.081 80.737 247.158 80.607 244.438 79.804 240.538 81.449 241.051 83.082 237.151 83.134 233.918 84.585 242.693 84.637 244.592 84.896 245.926 85.31 246.85 89.845 237.305 94.354 250.237 99.109 245.926 102.025 241.205 104.823 248.492 107.777 246.696 108.814 245.259 109.863 242.693 110.861 247.004 123.079 247.928 136.101 244.079 147.684 247.158 178.637 241.41 211.716 249.518 244.353 241.923 252.05 238.998 260.044 234.841 267.546 231.506 267.546 231.506 273.622 222.371 273.622 181.316S274.918 145.393 275.112 112.703C275.307 80.013 276.214 78.679 274.918 53.02Z" opacity="1" fill="#ff5858" data-fill-palette-color="tertiary"></path><g transform="matrix(1,0,0,1,55.76832000000002,26.230666666666668)"><svg width="164.06554334554335" viewBox="0.9200000166893005 -31.3799991607666 26.440000534057617 31.3799991607666" height="194.73866666666666" data-palette-color="#ffffff"><path d="M4.71-30.11L14.31-3.33 14.31-3.33 23.68-30Q24.31-31.38 25.52-31.38L25.52-31.38Q26.21-31.38 26.67-31.03L26.67-31.03Q27.36-30.46 27.36-29.66L27.36-29.66 27.36-29.43Q27.36-29.31 27.24-29.08L27.24-29.08 17.41-2.3Q16.72 0 14.14 0L14.14 0Q11.84 0 11.03-2.3L11.03-2.3 1.03-28.97Q0.92-29.31 0.92-29.6 0.92-29.89 1.09-30.23 1.26-30.57 1.55-30.86L1.55-30.86Q2.18-31.38 2.87-31.38L2.87-31.38Q4.31-31.38 4.71-30.11L4.71-30.11Z" opacity="1" transform="matrix(1,0,0,1,0,0)" fill="#ffffff" class="undefined-text-0" data-fill-palette-color="quaternary" id="text-0"></path></svg></g></svg></g></svg></g></svg></g><g></g></svg></g><defs></defs></svg><rect width="275.6021833455434" height="247.2" fill="none" stroke="none" visibility="hidden"></rect></g></svg></g></svg>